<?xml version="1.0" standalone="no"?>
<svg viewBox="0 0 200 200" xmlns="http://www.w3.org/2000/svg">
  <path fill="#F55004" d="M35.2,-63.9C44.8,-55.4,51.2,-44.3,60.8,-33.2C70.5,-22.2,83.5,-11.1,86.8,1.9C90.1,14.9,83.8,29.8,74.2,41.1C64.6,52.3,51.8,59.9,38.9,62C26,64,13,60.6,1.6,57.8C-9.8,55,-19.6,52.9,-28.3,48.5C-37,44,-44.7,37.1,-55.9,28.6C-67,20.2,-81.7,10.1,-77,2.7C-72.3,-4.7,-48.3,-9.3,-40.3,-23.4C-32.4,-37.5,-40.6,-61,-36.6,-72.8C-32.5,-84.5,-16.3,-84.5,-1.7,-81.5C12.8,-78.4,25.6,-72.4,35.2,-63.9Z" transform="translate(100 100)" />
</svg>
